<svg xmlns="http://www.w3.org/2000/svg" xmlns:xlink="http://www.w3.org/1999/xlink" version="1.1" width="1000pt" height="524pt" viewBox="0 0 1000 524">
<defs>
<clipPath id="clip_0">
<path transform="matrix(1,0,0,-1,0,524)" d="M0 524H1000V0H0Z"/>
</clipPath>
</defs>
<g clip-path="url(#clip_0)">
<path transform="matrix(1,0,0,-1,791.1389,290.5821)" d="M0 0-24.122-40.49H-53.021L-15.285 21.913-51.588 79.315H-19.584L3.344 43.111 23.884 79.315H52.306L18.391 21.198 57.56-40.49H25.556ZM-128.015 30.25H-88.368V32.631C-88.368 47.637-92.667 59.308-106.759 59.308-120.372 59.308-127.298 49.304-128.015 30.25M-100.549-42.872C-136.852-42.872-157.392-22.627-157.392 19.055-157.392 55.258-140.912 81.697-106.281 81.697-77.859 81.697-59.47 65.977-59.47 24.295V9.289H-128.015C-126.82-10.718-118.939-20.483-98.161-20.483-84.308-20.483-69.5-15.243-60.664-9.289V-32.393C-69.022-38.108-82.397-42.872-100.549-42.872M-251.254 18.578C-251.254-8.574-243.61-20.483-228.087-20.483-212.085-20.483-203.964-8.336-203.964 19.531-203.964 47.16-211.606 59.308-226.893 59.308-243.133 59.308-251.254 46.922-251.254 18.578M-280.63 18.578C-280.63 58.593-261.523 81.697-234.058 81.697-221.638 81.697-211.129 75.98-203.964 65.262V125.046H-175.543V-40.49H-201.814L-203.248-25.009C-210.891-36.68-221.877-42.872-235.252-42.872-262.001-42.872-280.63-20.96-280.63 18.578M-366.61-40.49H-395.032V79.315H-367.327L-366.61 69.311H-365.178C-359.445 75.027-349.415 81.22-332.457 81.22-309.291 81.22-299.737 70.74-299.737 46.922V-40.49H-328.158V44.064C-328.158 53.115-332.696 57.402-342.727 57.402-352.997 57.402-361.356 51.924-366.61 45.493ZM-446.62 15.482H-450.68C-475.042 15.482-484.833 10.48-484.833-3.572-484.833-14.291-478.863-21.436-466.921-21.436-456.89-21.436-450.203-17.148-446.62-11.909ZM-418.199-11.194C-418.199-20.96-417.721-30.726-416.766-40.49H-444.471C-445.426-38.108-446.381-34.06-446.62-30.964H-447.814C-453.308-36.68-460.473-42.158-477.191-42.158-499.164-42.158-513.971-28.582-513.971-4.287-513.971 20.008-494.626 34.298-451.158 34.298H-446.62V40.968C-446.62 53.83-452.83 58.593-466.443 58.593-481.012 58.593-497.73 52.4-505.374 46.684V70.264C-496.775 75.266-481.968 81.22-463.1 81.22-433.006 81.22-418.199 70.264-418.199 41.206Z"/>
<path transform="matrix(1,0,0,-1,207.1887,331.0723)" d="M0 0V16.673C0 39.3-2.627 50.494-11.703 70.025L-55.887 165.536H-25.316L12.181 83.84C23.167 60.021 27.944 47.636 27.944 20.245V0Z" fill="#fc3f1d"/>
<path transform="matrix(1,0,0,-1,225.1017,245.56549)" d="M0 0 34.87 80.029H64.246L28.899 0Z" fill="#fc3f1d"/>
</g>
</svg>
